<svg version="1.1" id="Layer_1" xmlns="http://www.w3.org/2000/svg" xmlns:xlink="http://www.w3.org/1999/xlink" x="0px" y="0px"
	 width="100%" viewBox="0 0 1024 1024" enable-background="new 0 0 1024 1024" xml:space="preserve">
<path fill="#000000" opacity="1.000000" stroke="none" 
	d="
M567.000000,120.970337 
	C628.825684,120.979462 690.155884,120.542564 751.475342,121.164421 
	C788.570679,121.540611 822.579041,132.376251 851.125122,156.978851 
	C876.215820,178.603271 891.949585,206.143204 899.937500,238.145523 
	C903.566406,252.684052 905.043884,267.496735 905.038025,282.509552 
	C904.977905,437.823578 905.333130,593.138794 904.784607,748.450928 
	C904.632812,791.424500 889.789673,829.543030 858.929382,860.317871 
	C836.349426,882.835449 808.719788,896.048096 777.331604,900.858643 
	C764.416748,902.838013 751.225586,903.854065 738.158264,903.871155 
	C584.677612,904.072205 431.196014,904.226074 277.715973,903.863220 
	C230.990662,903.752808 190.677155,887.336426 159.304352,851.737610 
	C141.562241,831.605347 130.220978,808.024719 125.219513,781.774902 
	C122.689613,768.496826 121.196800,754.806030 121.172882,741.298462 
	C120.899330,586.818176 120.702576,432.336243 121.176033,277.856903 
	C121.322609,230.028931 138.769730,188.949966 175.451935,157.232880 
	C195.996597,139.469040 220.004089,128.243927 246.865463,124.162209 
	C260.436493,122.100021 274.299561,121.145638 288.034485,121.107521 
	C380.855743,120.849922 473.678040,120.971527 567.000000,120.970337 
M624.324707,529.829102 
	C634.410522,516.859497 644.794373,504.109070 654.521790,490.876038 
	C676.656677,460.764038 697.100159,429.639923 710.636902,394.478210 
	C722.245850,364.323822 730.874878,333.336212 733.627991,301.161621 
	C735.223755,282.512665 734.304321,263.602478 733.744324,244.832901 
	C733.426331,234.176605 728.283386,227.931412 719.545471,226.451492 
	C715.280457,225.729141 710.618652,226.499634 706.263916,227.293518 
	C676.317444,232.752960 647.642212,242.269714 620.092346,255.132736 
	C594.657288,267.008331 570.628113,281.320526 549.659241,300.056213 
	C527.885193,319.511353 509.143951,341.828461 492.368927,365.705444 
	C478.673279,385.199341 465.551605,405.095978 451.939575,424.649841 
	C450.532166,426.671600 447.674774,428.373505 445.220062,428.859344 
	C433.557556,431.167725 421.651672,432.378815 410.111938,435.146057 
	C390.286957,439.900024 373.220245,449.174255 362.014191,467.258636 
	C357.485596,474.566956 352.101227,481.344452 347.117676,488.371582 
	C333.033966,508.230530 318.940460,528.082520 304.884735,547.961243 
	C300.119293,554.700928 302.263611,562.365051 309.341888,563.360168 
	C311.840485,563.711426 314.556702,562.909058 317.116882,562.366150 
	C337.768372,557.986389 358.376221,553.395325 379.059723,549.174194 
	C391.431671,546.649231 398.777191,554.298096 395.921539,566.699524 
	C394.487305,572.927917 394.736786,578.552917 399.054443,583.441528 
	C401.466888,586.172974 404.054840,588.865173 406.977478,591.011719 
	C427.409058,606.017700 447.882263,620.969360 468.486633,635.736877 
	C476.689178,641.615723 485.080200,641.996704 493.822235,636.025269 
	C502.581512,630.042053 511.448517,633.574097 512.958130,644.121216 
	C514.978882,658.239136 515.722961,672.540222 517.003601,686.763672 
	C517.911621,696.847839 518.809570,706.932922 519.693848,717.019226 
	C520.124756,721.933899 522.380188,725.668396 527.256714,726.921875 
	C532.525208,728.276306 536.260986,725.882141 539.498169,721.538025 
	C559.222778,695.068237 579.238892,668.815613 598.956787,642.340820 
	C609.968506,627.555725 617.375793,611.326477 615.942932,592.313782 
	C615.032349,580.230835 613.391479,568.202759 612.494751,556.119141 
	C612.175232,551.814697 611.931885,546.856018 613.717163,543.204956 
	C616.055237,538.423340 620.437805,534.641418 624.324707,529.829102 
M376.992432,725.489990 
	C382.651459,719.164429 388.725922,713.158325 393.884613,706.448120 
	C405.282379,691.622314 416.323395,676.517151 427.247070,661.336792 
	C429.187744,658.639893 430.557129,655.117249 430.970703,651.822815 
	C431.818695,645.067810 425.533661,637.500061 416.836578,634.083679 
	C411.962799,632.169250 407.026764,631.976868 402.786774,635.602600 
	C398.878967,638.944275 394.818726,642.248657 391.547028,646.171204 
	C362.654114,680.812012 341.007233,719.665405 325.090240,761.774109 
	C324.451416,763.464111 325.100067,765.640686 325.148834,767.590576 
	C327.244537,767.080078 329.903748,767.217102 331.349152,765.959290 
	C346.510315,752.765625 361.477356,739.348816 376.992432,725.489990 
M366.322601,621.803833 
	C341.554291,640.015808 323.659760,662.867920 317.321533,693.740601 
	C319.558014,693.720520 321.434509,693.392700 322.645111,692.316040 
	C330.329285,685.482727 338.893829,679.302673 345.224030,671.358154 
	C356.214569,657.564880 365.816925,642.663208 375.937805,628.181885 
	C377.347290,626.165161 378.739929,624.007690 379.488251,621.703613 
	C379.979492,620.191101 379.714966,618.064148 378.942780,616.686829 
	C378.621460,616.113708 375.916077,616.372559 374.613434,616.959778 
	C371.926544,618.171204 369.453705,619.857422 366.322601,621.803833 
M447.781982,700.258667 
	C450.693237,692.065796 453.770294,683.924805 456.361511,675.631897 
	C456.823120,674.154724 455.268707,672.047546 454.645203,670.231201 
	C452.789429,670.882935 450.226562,670.970276 449.186737,672.273193 
	C438.229156,686.002991 427.320007,699.781006 416.794983,713.843262 
	C408.472015,724.963318 401.612396,736.988281 397.452637,750.356995 
	C397.061401,751.614441 397.585571,753.156677 397.684723,754.566772 
	C399.014618,754.326233 400.642914,754.498291 401.630249,753.784180 
	C421.026642,739.755859 436.595825,722.388977 447.781982,700.258667 
z"/>
<path fill="#FFFFFF" opacity="1.000000" stroke="none"
	d="
M624.132812,530.129272
	C620.437805,534.641418 616.055237,538.423340 613.717163,543.204956
	C611.931885,546.856018 612.175232,551.814697 612.494751,556.119141
	C613.391479,568.202759 615.032349,580.230835 615.942932,592.313782
	C617.375793,611.326477 609.968506,627.555725 598.956787,642.340820
	C579.238892,668.815613 559.222778,695.068237 539.498169,721.538025
	C536.260986,725.882141 532.525208,728.276306 527.256714,726.921875
	C522.380188,725.668396 520.124756,721.933899 519.693848,717.019226
	C518.809570,706.932922 517.911621,696.847839 517.003601,686.763672
	C515.722961,672.540222 514.978882,658.239136 512.958130,644.121216
	C511.448517,633.574097 502.581512,630.042053 493.822235,636.025269
	C485.080200,641.996704 476.689178,641.615723 468.486633,635.736877
	C447.882263,620.969360 427.409058,606.017700 406.977478,591.011719
	C404.054840,588.865173 401.466888,586.172974 399.054443,583.441528
	C394.736786,578.552917 394.487305,572.927917 395.921539,566.699524
	C398.777191,554.298096 391.431671,546.649231 379.059723,549.174194
	C358.376221,553.395325 337.768372,557.986389 317.116882,562.366150
	C314.556702,562.909058 311.840485,563.711426 309.341888,563.360168
	C302.263611,562.365051 300.119293,554.700928 304.884735,547.961243
	C318.940460,528.082520 333.033966,508.230530 347.117676,488.371582
	C352.101227,481.344452 357.485596,474.566956 362.014191,467.258636
	C373.220245,449.174255 390.286957,439.900024 410.111938,435.146057
	C421.651672,432.378815 433.557556,431.167725 445.220062,428.859344
	C447.674774,428.373505 450.532166,426.671600 451.939575,424.649841
	C465.551605,405.095978 478.673279,385.199341 492.368927,365.705444
	C509.143951,341.828461 527.885193,319.511353 549.659241,300.056213
	C570.628113,281.320526 594.657288,267.008331 620.092346,255.132736
	C647.642212,242.269714 676.317444,232.752960 706.263916,227.293518
	C710.618652,226.499634 715.280457,225.729141 719.545471,226.451492
	C728.283386,227.931412 733.426331,234.176605 733.744324,244.832901
	C734.304321,263.602478 735.223755,282.512665 733.627991,301.161621
	C730.874878,333.336212 722.245850,364.323822 710.636902,394.478210
	C697.100159,429.639923 676.656677,460.764038 654.521790,490.876038
	C644.794373,504.109070 634.410522,516.859497 624.132812,530.129272
M635.484558,431.025848
	C652.167053,421.529602 661.416382,406.872681 662.849548,388.084106
	C665.629211,351.641693 633.013123,324.932281 600.749023,329.737946
	C570.011230,334.316315 548.234070,365.989227 555.492554,396.284698
	C563.828369,431.076355 602.623657,448.882568 635.484558,431.025848
z"/>
<path fill="#FEFEFE" opacity="1.000000" stroke="none"
	d="
M376.745239,725.741821
	C361.477356,739.348816 346.510315,752.765625 331.349152,765.959290
	C329.903748,767.217102 327.244537,767.080078 325.148865,767.590576
	C325.100067,765.640686 324.451416,763.464111 325.090240,761.774109
	C341.007233,719.665405 362.654114,680.812012 391.547028,646.171204
	C394.818726,642.248657 398.878967,638.944275 402.786774,635.602600
	C407.026764,631.976868 411.962799,632.169250 416.836578,634.083679
	C425.533661,637.500061 431.818695,645.067810 430.970703,651.822815
	C430.557129,655.117249 429.187744,658.639893 427.247070,661.336792
	C416.323395,676.517151 405.282379,691.622314 393.884613,706.448120
	C388.725922,713.158325 382.651459,719.164429 376.745239,725.741821
z"/>
<path fill="#FCFCFC" opacity="1.000000" stroke="none"
	d="
M366.607697,621.576050
	C369.453705,619.857422 371.926544,618.171204 374.613434,616.959778
	C375.916077,616.372559 378.621460,616.113708 378.942780,616.686829
	C379.714966,618.064148 379.979492,620.191101 379.488251,621.703613
	C378.739929,624.007690 377.347290,626.165161 375.937805,628.181885
	C365.816925,642.663208 356.214569,657.564880 345.224030,671.358154
	C338.893829,679.302673 330.329285,685.482727 322.645111,692.316040
	C321.434509,693.392700 319.558014,693.720520 317.321533,693.740601
	C323.659760,662.867920 341.554291,640.015808 366.607697,621.576050
z"/>
<path fill="#FCFCFC" opacity="1.000000" stroke="none"
	d="
M447.563782,700.566650
	C436.595825,722.388977 421.026642,739.755859 401.630249,753.784180
	C400.642914,754.498291 399.014618,754.326233 397.684692,754.566772
	C397.585571,753.156677 397.061401,751.614441 397.452637,750.356995
	C401.612396,736.988281 408.472015,724.963318 416.794983,713.843262
	C427.320007,699.781006 438.229156,686.002991 449.186737,672.273193
	C450.226562,670.970276 452.789429,670.882935 454.645203,670.231201
	C455.268707,672.047546 456.823120,674.154724 456.361511,675.631897
	C453.770294,683.924805 450.693237,692.065796 447.563782,700.566650
z"/>
<path fill="#010101" opacity="1.000000" stroke="none"
	d="
M635.183716,431.247864
	C602.623657,448.882568 563.828369,431.076355 555.492554,396.284698
	C548.234070,365.989227 570.011230,334.316315 600.749023,329.737946
	C633.013123,324.932281 665.629211,351.641693 662.849548,388.084106
	C661.416382,406.872681 652.167053,421.529602 635.183716,431.247864
z"/>
</svg>