<svg xmlns="http://www.w3.org/2000/svg" width="256" height="256" viewBox="0 0 256 256">
<g>
<path d="M 7.20,248.80 L 7.15,248.75 L 7.04,247.95 L 6.99,247.45 L 6.89,245.80 L 6.85,244.87 L 6.76,242.42 L 6.71,241.10 L 6.63,237.90 L 6.59,236.22 L 6.51,232.34 L 6.47,230.32 L 6.40,225.82 L 6.37,223.50 L 6.31,218.43 L 6.28,215.83 L 6.22,210.25 L 6.19,207.40 L 6.14,201.37 L 6.12,198.30 L 6.08,191.88 L 6.06,188.62 L 6.02,181.87 L 6.00,178.45 L 5.97,171.42 L 5.95,164.32 L 5.91,149.56 L 5.90,142.12 L 5.89,127.00 L 5.89,119.44 L 5.91,104.44 L 5.93,97.00 L 5.97,82.58 L 5.99,79.04 L 6.02,72.13 L 6.04,68.72 L 6.08,62.12 L 6.10,58.86 L 6.14,52.63 L 6.17,49.56 L 6.22,43.75 L 6.25,40.90 L 6.31,35.57 L 6.34,32.97 L 6.40,28.18 L 6.44,25.85 L 6.51,21.66 L 6.55,19.64 L 6.63,16.10 L 6.67,14.41 L 6.76,11.58 L 6.80,10.26 L 6.89,8.20 L 6.94,7.28 L 7.04,6.05 L 7.20,5.20 L 7.26,5.14 L 7.70,5.03 L 7.98,4.98 L 8.90,4.88 L 9.42,4.84 L 10.85,4.75 L 11.63,4.70 L 13.59,4.62 L 14.65,4.59 L 17.20,4.51 L 18.55,4.48 L 21.71,4.42 L 23.37,4.39 L 27.19,4.33 L 29.18,4.30 L 33.68,4.25 L 36.01,4.23 L 41.23,4.19 L 43.94,4.17 L 49.91,4.14 L 53.00,4.12 L 59.77,4.09 L 63.26,4.08 L 70.85,4.06 L 74.76,4.05 L 83.22,4.03 L 87.56,4.02 L 96.92,4.01 L 101.72,4.01 L 112.01,4.00 L 128.55,4.00 L 132.14,4.00 L 139.02,4.00 L 142.40,4.00 L 148.87,4.00 L 152.05,4.00 L 158.11,4.00 L 161.09,4.00 L 166.77,4.01 L 169.56,4.01 L 174.86,4.01 L 177.46,4.01 L 182.40,4.02 L 184.82,4.02 L 189.41,4.03 L 191.67,4.03 L 195.92,4.04 L 198.01,4.04 L 201.94,4.05 L 203.87,4.06 L 207.49,4.07 L 209.26,4.08 L 212.59,4.09 L 214.21,4.10 L 217.26,4.12 L 220.23,4.13 L 225.38,4.18 L 227.83,4.20 L 232.02,4.26 L 234.00,4.29 L 237.33,4.36 L 238.90,4.39 L 241.46,4.48 L 242.66,4.53 L 244.58,4.63 L 245.47,4.68 L 246.83,4.80 L 247.46,4.87 L 248.38,5.01 L 248.80,5.08 L 249.38,5.25 L 250.35,5.83 L 250.54,6.04 L 250.85,7.02 L 250.93,7.35 L 251.06,8.25 L 251.13,8.75 L 251.25,10.07 L 251.30,10.79 L 251.40,12.62 L 251.45,13.61 L 251.54,16.04 L 251.58,17.34 L 251.65,20.46 L 251.68,22.12 L 251.74,26.02 L 251.77,28.08 L 251.82,32.85 L 251.84,35.36 L 251.88,41.09 L 251.89,42.59 L 251.90,45.78 L 251.91,47.41 L 251.92,50.87 L 251.93,52.64 L 251.94,56.38 L 251.95,58.29 L 251.96,62.33 L 251.96,64.39 L 251.97,68.73 L 251.97,70.94 L 251.98,75.60 L 251.98,77.97 L 251.99,82.96 L 251.99,85.49 L 251.99,90.82 L 251.99,93.52 L 252.00,99.20 L 252.00,102.08 L 252.00,108.11 L 252.00,111.18 L 252.00,117.59 L 252.00,127.63 L 252.00,133.38 L 252.00,144.14 L 251.99,149.40 L 251.99,159.21 L 251.98,163.99 L 251.97,172.89 L 251.96,177.22 L 251.94,185.24 L 251.93,189.14 L 251.91,196.30 L 251.89,199.79 L 251.86,206.15 L 251.85,209.23 L 251.81,214.81 L 251.79,217.51 L 251.74,222.36 L 251.72,224.70 L 251.67,228.84 L 251.64,230.83 L 251.58,234.31 L 251.55,235.97 L 251.49,238.81 L 251.45,240.16 L 251.38,242.41 L 251.34,243.47 L 251.25,245.16 L 251.21,245.94 L 251.12,247.10 L 251.07,247.62 L 250.97,248.30 L 250.80,248.80 L 250.75,248.85 L 249.95,248.96 L 249.45,249.01 L 247.80,249.11 L 246.87,249.15 L 244.42,249.24 L 243.10,249.29 L 239.90,249.37 L 238.22,249.41 L 234.34,249.49 L 232.32,249.53 L 227.82,249.60 L 225.50,249.63 L 220.43,249.69 L 217.83,249.72 L 212.25,249.78 L 209.40,249.81 L 203.37,249.86 L 200.30,249.88 L 193.88,249.92 L 190.62,249.94 L 183.87,249.98 L 180.45,250.00 L 173.42,250.03 L 166.32,250.05 L 151.56,250.09 L 144.12,250.10 L 129.00,250.11 L 121.44,250.11 L 106.44,250.09 L 99.00,250.07 L 84.58,250.03 L 81.04,250.01 L 74.13,249.98 L 70.72,249.96 L 64.12,249.92 L 60.86,249.90 L 54.63,249.86 L 51.56,249.83 L 45.75,249.78 L 42.90,249.75 L 37.57,249.69 L 34.97,249.66 L 30.18,249.60 L 27.85,249.56 L 23.66,249.49 L 21.64,249.45 L 18.10,249.37 L 16.41,249.33 L 13.58,249.24 L 12.26,249.20 L 10.20,249.11 L 9.28,249.06 L 8.05,248.96 L 7.54,248.91 M 136.17,229.44 L 137.12,228.06 L 138.82,225.46 L 139.63,224.19 L 141.06,221.79 L 141.75,220.62 L 142.93,218.42 L 143.49,217.33 L 144.43,215.29 L 144.87,214.29 L 145.58,212.39 L 145.90,211.45 L 146.38,209.68 L 147.02,204.71 L 147.04,200.50 L 148.87,202.88 L 150.70,205.25 L 151.34,202.88 L 151.62,201.82 L 151.95,199.60 L 152.08,198.48 L 152.12,196.18 L 152.10,195.02 L 151.85,192.70 L 151.69,191.54 L 151.17,189.24 L 150.87,188.10 L 150.10,185.88 L 149.68,184.79 L 148.65,182.71 L 148.11,181.69 L 146.86,179.81 L 144.75,177.25 L 144.06,176.54 L 142.91,175.54 L 142.35,175.09 L 141.19,174.53 L 140.58,174.30 L 139.08,174.04 L 136.05,173.86 L 130.50,173.73 L 136.83,173.01 L 137.82,172.90 L 139.52,172.63 L 140.32,172.49 L 141.68,172.12 L 142.33,171.91 L 143.42,171.35 L 143.94,171.04 L 144.85,170.23 L 145.28,169.78 L 146.06,168.64 L 146.44,168.02 L 147.16,166.48 L 147.52,165.65 L 148.26,163.63 L 149.46,160.00 L 149.83,158.83 L 150.54,156.59 L 150.89,155.50 L 151.50,153.58 L 151.79,152.68 L 152.22,151.30 L 152.62,150.07 L 152.69,149.83 L 152.97,149.67 L 153.13,149.64 L 153.57,149.90 L 153.82,150.08 L 154.43,150.77 L 155.55,152.28 L 156.29,153.37 L 157.49,155.41 L 158.06,156.42 L 159.00,158.53 L 159.45,159.62 L 160.26,162.08 L 161.45,166.50 L 162.66,171.50 L 167.08,166.99 L 169.18,164.85 L 173.02,159.88 L 174.88,157.30 L 178.14,151.65 L 179.68,148.77 L 182.21,142.71 L 185.03,133.45 L 185.50,131.38 L 186.06,126.55 L 186.28,124.08 L 186.34,119.03 L 186.31,116.56 L 185.88,112.07 L 185.75,111.02 L 185.38,109.16 L 184.70,106.83 L 184.16,105.45 L 182.31,102.56 L 181.28,101.12 L 178.67,98.36 L 177.31,97.02 L 174.26,94.69 L 169.54,92.02 L 168.50,91.57 L 167.08,90.86 L 166.47,90.50 L 165.70,89.71 L 165.37,89.27 L 164.99,88.04 L 164.57,85.32 L 164.26,82.66 L 163.57,77.76 L 163.22,75.37 L 162.44,70.93 L 162.04,68.77 L 161.16,64.74 L 160.70,62.77 L 159.68,59.08 L 159.15,57.27 L 157.99,53.86 L 157.38,52.19 L 156.05,48.99 L 151.33,39.87 L 150.11,37.84 L 147.29,33.83 L 145.83,31.86 L 142.67,28.13 L 141.06,26.32 L 137.75,23.08 L 132.79,18.96 L 131.87,18.30 L 130.54,17.42 L 129.93,17.05 L 129.00,16.72 L 128.55,16.62 L 127.69,16.76 L 126.14,17.43 L 125.57,17.73 L 124.31,18.53 L 123.66,18.97 L 122.27,20.02 L 120.85,21.13 L 117.84,23.90 L 116.34,25.35 L 113.41,28.55 L 109.50,33.45 L 108.35,35.06 L 106.19,38.50 L 105.14,40.26 L 103.18,43.95 L 102.23,45.83 L 100.48,49.75 L 99.64,51.73 L 98.13,55.82 L 97.40,57.88 L 96.13,62.11 L 95.53,64.23 L 94.52,68.55 L 94.04,70.72 L 93.30,75.10 L 92.51,81.68 L 91.80,89.86 L 86.58,92.41 L 85.06,93.16 L 82.15,95.04 L 80.73,96.04 L 78.14,98.31 L 76.89,99.48 L 74.78,101.99 L 72.32,105.85 L 71.95,106.58 L 71.43,108.13 L 71.19,108.96 L 70.89,110.97 L 70.76,112.07 L 70.64,114.91 L 70.62,115.69 L 70.60,117.47 L 70.62,120.50 L 70.65,123.74 L 71.23,129.72 L 71.60,132.65 L 72.90,138.16 L 73.65,140.88 L 75.72,146.11 L 79.76,153.86 L 80.25,154.67 L 81.43,156.45 L 82.05,157.36 L 83.42,159.27 L 84.82,161.18 L 87.77,164.86 L 88.49,165.73 L 89.85,167.28 L 90.50,168.02 L 91.66,169.23 L 92.20,169.78 L 93.07,170.53 L 93.93,171.00 L 94.04,171.00 L 94.29,170.65 L 94.41,170.42 L 94.67,169.68 L 95.34,166.51 L 95.49,165.43 L 96.25,162.77 L 96.69,161.39 L 97.89,158.45 L 98.53,156.98 L 100.00,154.16 L 102.31,150.54 L 102.65,150.08 L 103.20,149.72 L 103.33,149.70 L 103.60,149.85 L 103.74,149.96 L 104.04,150.42 L 104.19,150.70 L 104.55,151.53 L 104.73,152.00 L 105.17,153.24 L 105.40,153.93 L 105.95,155.64 L 106.94,158.79 L 107.38,160.24 L 108.19,162.68 L 108.58,163.83 L 109.34,165.73 L 109.71,166.62 L 110.49,168.06 L 110.89,168.72 L 111.76,169.78 L 112.22,170.26 L 113.26,171.01 L 113.81,171.35 L 115.10,171.88 L 115.78,172.12 L 117.39,172.50 L 120.24,172.98 L 125.50,173.75 L 120.15,173.88 L 118.99,173.90 L 117.25,174.05 L 116.45,174.15 L 115.20,174.54 L 114.61,174.78 L 113.53,175.54 L 111.75,177.25 L 110.59,178.48 L 108.71,181.17 L 107.83,182.56 L 106.52,185.55 L 105.93,187.08 L 105.19,190.35 L 104.75,195.54 L 104.75,197.24 L 105.05,200.44 L 105.14,201.16 L 105.37,202.34 L 105.76,203.53 L 105.99,203.95 L 106.33,204.46 L 106.48,204.66 L 106.71,204.73 L 106.83,204.70 L 107.05,204.30 L 107.45,203.16 L 107.59,202.71 L 107.89,202.02 L 108.04,201.71 L 108.34,201.32 L 108.48,201.16 L 108.77,201.04 L 108.90,201.02 L 109.16,201.18 L 109.41,201.40 L 109.76,202.61 L 110.00,205.48 L 110.00,206.10 L 110.13,207.56 L 110.21,208.31 L 110.48,209.90 L 110.63,210.69 L 111.00,212.22 L 111.64,214.23 L 111.90,214.91 L 112.91,216.90 L 113.48,217.97 L 114.97,220.55 L 115.76,221.88 L 117.54,224.77 L 118.45,226.22 L 120.35,229.13 L 121.30,230.56 L 123.12,233.22 L 124.01,234.50 L 125.58,236.62 L 126.31,237.60 L 127.44,238.91 L 127.68,239.18 L 128.06,239.51 L 128.43,239.67 L 128.49,239.65 L 128.76,239.41 L 128.91,239.26 L 129.33,238.77 L 129.79,238.23 L 131.09,236.55 L 131.79,235.62 L 133.46,233.32 L 134.32,232.12 Z" fill="rgba(0,0,0,1)"/>
</g>
</svg>